# 3ds Max Wavefront OBJ Exporter v0.97b - (c)2007 guruware
# File Created: 12.04.2020 14:55:32

mtllib Resources\Bottle.mtl

#
# object Line1076
#

v  -0.0006 0.0042 0.0000
v  0.6188 0.0000 -0.6194
v  0.8753 0.0000 0.0000
v  0.7014 0.0973 -0.7019
v  0.9921 0.0973 0.0000
v  0.7014 0.9927 -0.7019
v  0.9921 0.9927 0.0000
v  0.7014 1.4793 -0.7019
v  0.9921 1.4793 0.0000
v  0.6050 1.5961 -0.6056
v  0.8559 1.5961 0.0000
v  0.7151 1.7324 -0.7157
v  1.0116 1.7324 0.0000
v  0.7151 1.9075 -0.7157
v  1.0116 1.9075 0.0000
v  0.2059 2.0049 -0.2065
v  0.2914 2.0049 0.0000
v  0.0682 2.2190 -0.0688
v  0.0967 2.2190 -0.0000
v  0.2196 2.4136 -0.2202
v  0.3109 2.4136 -0.0000
v  -0.0006 2.6667 0.0000
v  -0.0006 2.6667 -0.0000
v  -0.0006 0.0000 -0.8759
v  -0.0006 0.0973 -0.9927
v  -0.0006 0.9927 -0.9927
v  -0.0006 1.4793 -0.9927
v  -0.0006 1.5961 -0.8564
v  -0.0006 1.7324 -1.0122
v  -0.0006 1.9075 -1.0122
v  -0.0006 2.0049 -0.2920
v  -0.0006 2.2190 -0.0973
v  -0.0006 2.4136 -0.3114
v  -0.6199 0.0000 -0.6194
v  -0.7025 0.0973 -0.7019
v  -0.7025 0.9927 -0.7019
v  -0.7025 1.4793 -0.7019
v  -0.6062 1.5961 -0.6056
v  -0.7163 1.7324 -0.7157
v  -0.7163 1.9075 -0.7157
v  -0.2070 2.0049 -0.2065
v  -0.0694 2.2190 -0.0688
v  -0.2208 2.4136 -0.2202
v  -0.8765 0.0000 -0.0000
v  -0.9933 0.0973 0.0000
v  -0.9933 0.9927 0.0000
v  -0.9933 1.4793 0.0000
v  -0.8570 1.5961 0.0000
v  -1.0127 1.7324 0.0000
v  -1.0127 1.9075 0.0000
v  -0.2926 2.0049 0.0000
v  -0.0979 2.2190 0.0000
v  -0.3120 2.4136 0.0000
v  -0.6199 -0.0000 0.6194
v  -0.7025 0.0973 0.7019
v  -0.7025 0.9927 0.7019
v  -0.7025 1.4793 0.7019
v  -0.6062 1.5961 0.6056
v  -0.7163 1.7324 0.7157
v  -0.7163 1.9075 0.7157
v  -0.2070 2.0049 0.2065
v  -0.0694 2.2190 0.0688
v  -0.2208 2.4136 0.2202
v  -0.0006 -0.0000 0.8759
v  -0.0006 0.0973 0.9927
v  -0.0006 0.9927 0.9927
v  -0.0006 1.4793 0.9927
v  -0.0006 1.5961 0.8564
v  -0.0006 1.7324 1.0122
v  -0.0006 1.9075 1.0122
v  -0.0006 2.0049 0.2920
v  -0.0006 2.2190 0.0973
v  -0.0006 2.4136 0.3114
v  0.6188 -0.0000 0.6194
v  0.7014 0.0973 0.7019
v  0.7014 0.9927 0.7019
v  0.7014 1.4793 0.7019
v  0.6050 1.5961 0.6056
v  0.7151 1.7324 0.7157
v  0.7151 1.9075 0.7157
v  0.2059 2.0049 0.2065
v  0.0682 2.2190 0.0688
v  0.2196 2.4136 0.2202
# 83 vertices

vn -0.0048 -1.0000 -0.0000
vn -0.0034 -1.0000 0.0034
vn 0.6402 -0.7682 -0.0000
vn 0.4527 -0.7682 -0.4527
vn 1.0000 0.0000 0.0000
vn 0.7071 0.0000 -0.7071
vn 1.0000 0.0000 -0.0000
vn 1.0000 -0.0000 -0.0000
vn 0.6508 0.7593 0.0000
vn 0.4602 0.7593 -0.4602
vn 0.6508 0.7593 -0.0000
vn 0.6585 -0.7526 -0.0000
vn 0.4656 -0.7526 -0.4656
vn 0.1339 0.9910 0.0000
vn 0.0947 0.9910 -0.0947
vn 0.7399 0.6727 -0.0000
vn 0.5232 0.6727 -0.5232
vn 0.6727 -0.7399 -0.0000
vn 0.4757 -0.7399 -0.4757
vn 0.6306 0.7761 -0.0000
vn 0.4459 0.7761 -0.4459
vn 0.3546 0.7701 -0.5303
vn 0.6248 0.7690 -0.1350
vn -0.0000 -1.0000 0.0048
vn 0.0020 -1.0000 0.0048
vn 0.0000 -0.7682 -0.6402
vn 0.0000 0.0000 -1.0000
vn -0.0000 0.0000 -1.0000
vn -0.0000 0.7593 -0.6508
vn -0.0000 -0.7526 -0.6585
vn -0.0000 0.9910 -0.1339
vn -0.0000 0.6727 -0.7399
vn -0.0000 -0.7399 -0.6727
vn -0.0000 0.7761 -0.6306
vn -0.1393 0.7686 -0.6244
vn 0.0036 -1.0000 0.0031
vn 0.0034 -1.0000 0.0034
vn -0.4527 -0.7682 -0.4527
vn -0.7071 0.0000 -0.7071
vn -0.4602 0.7593 -0.4602
vn -0.4656 -0.7526 -0.4656
vn -0.7071 -0.0000 -0.7071
vn -0.0947 0.9910 -0.0947
vn -0.5232 0.6727 -0.5232
vn -0.4757 -0.7399 -0.4757
vn -0.4459 0.7761 -0.4459
vn -0.5319 0.7699 -0.3526
vn 0.0048 -1.0000 -0.0000
vn -0.6402 -0.7682 -0.0000
vn -1.0000 -0.0000 0.0000
vn -1.0000 0.0000 0.0000
vn -0.6508 0.7593 0.0000
vn -0.6585 -0.7526 0.0000
vn -0.6585 -0.7526 -0.0000
vn -0.1339 0.9910 0.0000
vn -0.7399 0.6727 0.0000
vn -0.6727 -0.7399 0.0000
vn -0.6306 0.7761 0.0000
vn -0.6249 0.7691 0.1338
vn 0.0034 -1.0000 -0.0034
vn 0.0029 -1.0000 -0.0038
vn -0.4527 -0.7682 0.4527
vn -0.7071 -0.0000 0.7071
vn -0.4602 0.7593 0.4602
vn -0.4656 -0.7526 0.4656
vn -0.7071 0.0000 0.7071
vn -0.0947 0.9910 0.0947
vn -0.5232 0.6727 0.5232
vn -0.4757 -0.7399 0.4757
vn -0.4459 0.7761 0.4459
vn -0.3466 0.7690 0.5371
vn -0.0007 -1.0000 -0.0048
vn 0.0000 -1.0000 -0.0048
vn -0.0000 -0.7682 0.6402
vn 0.0000 -0.7682 0.6402
vn 0.0000 -0.0000 1.0000
vn 0.0000 0.7593 0.6508
vn 0.0000 -0.7526 0.6585
vn 0.0000 0.0000 1.0000
vn 0.0000 0.9910 0.1339
vn 0.0000 0.6727 0.7399
vn 0.0000 -0.7399 0.6727
vn 0.0000 0.7761 0.6306
vn 0.1191 0.7706 0.6261
vn -0.0034 -1.0000 -0.0034
vn 0.4527 -0.7682 0.4527
vn 0.7071 -0.0000 0.7071
vn 0.4602 0.7593 0.4602
vn 0.4656 -0.7526 0.4656
vn 0.0947 0.9910 0.0947
vn 0.5232 0.6727 0.5232
vn 0.4757 -0.7399 0.4757
vn 0.4459 0.7761 0.4459
vn 0.5373 0.7690 0.3463
# 94 vertex normals

o Line1076
g Line1076
usemtl Material__58
s off
f 1//1 1//2 2//2 
f 2//2 3//1 1//1 
f 3//3 2//4 4//4 
f 4//4 5//3 3//3 
f 5//5 4//6 6//6 
f 6//6 7//7 5//5 
usemtl vetro2
f 7//8 6//6 8//6 
f 8//6 9//8 7//8 
f 9//9 8//10 10//10 
f 10//10 11//11 9//9 
f 11//12 10//13 12//13 
f 12//13 13//12 11//12 
f 13//7 12//6 14//6 
f 14//6 15//7 13//7 
f 15//14 14//15 16//15 
f 16//15 17//14 15//14 
f 17//16 16//17 18//17 
f 18//17 19//16 17//16 
f 19//18 18//19 20//19 
f 20//19 21//18 19//18 
f 21//20 20//21 22//22 
f 22//22 23//23 21//20 
usemtl Material__58
f 24//24 2//2 1//2 
f 1//2 1//25 24//24 
f 2//4 24//26 25//26 
f 25//26 4//4 2//4 
f 4//6 25//27 26//27 
f 26//27 6//6 4//6 
usemtl vetro2
f 6//6 26//27 27//28 
f 27//28 8//6 6//6 
f 8//10 27//29 28//29 
f 28//29 10//10 8//10 
f 10//13 28//30 29//30 
f 29//30 12//13 10//13 
f 12//6 29//28 30//28 
f 30//28 14//6 12//6 
f 14//15 30//31 31//31 
f 31//31 16//15 14//15 
f 16//17 31//32 32//32 
f 32//32 18//17 16//17 
f 18//19 32//33 33//33 
f 33//33 20//19 18//19 
f 20//21 33//34 22//35 
f 22//35 22//22 20//21 
usemtl Material__58
f 1//25 1//36 34//37 
f 34//37 24//24 1//25 
f 24//26 34//38 35//38 
f 35//38 25//26 24//26 
f 25//27 35//39 36//39 
f 36//39 26//27 25//27 
usemtl vetro2
f 26//27 36//39 37//39 
f 37//39 27//28 26//27 
f 27//29 37//40 38//40 
f 38//40 28//29 27//29 
f 28//30 38//41 39//41 
f 39//41 29//30 28//30 
f 29//28 39//42 40//42 
f 40//42 30//28 29//28 
f 30//31 40//43 41//43 
f 41//43 31//31 30//31 
f 31//32 41//44 42//44 
f 42//44 32//32 31//32 
f 32//33 42//45 43//45 
f 43//45 33//33 32//33 
f 33//34 43//46 22//47 
f 22//47 22//35 33//34 
usemtl Material__58
f 1//36 1//48 44//48 
f 44//48 34//37 1//36 
f 34//38 44//49 45//49 
f 45//49 35//38 34//38 
f 35//39 45//50 46//50 
f 46//50 36//39 35//39 
usemtl vetro2
f 36//39 46//51 47//51 
f 47//51 37//39 36//39 
f 37//40 47//52 48//52 
f 48//52 38//40 37//40 
f 38//41 48//53 49//54 
f 49//54 39//41 38//41 
f 39//42 49//50 50//50 
f 50//50 40//42 39//42 
f 40//43 50//55 51//55 
f 51//55 41//43 40//43 
f 41//44 51//56 52//56 
f 52//56 42//44 41//44 
f 42//45 52//57 53//57 
f 53//57 43//45 42//45 
f 43//46 53//58 22//59 
f 22//59 22//47 43//46 
usemtl Material__58
f 54//60 44//48 1//48 
f 1//48 1//61 54//60 
f 44//49 54//62 55//62 
f 55//62 45//49 44//49 
f 45//50 55//63 56//63 
f 56//63 46//50 45//50 
usemtl vetro2
f 46//51 56//63 57//63 
f 57//63 47//51 46//51 
f 47//52 57//64 58//64 
f 58//64 48//52 47//52 
f 48//53 58//65 59//65 
f 59//65 49//54 48//53 
f 49//50 59//66 60//66 
f 60//66 50//50 49//50 
f 50//55 60//67 61//67 
f 61//67 51//55 50//55 
f 51//56 61//68 62//68 
f 62//68 52//56 51//56 
f 52//57 62//69 63//69 
f 63//69 53//57 52//57 
f 53//58 63//70 22//71 
f 22//71 22//59 53//58 
usemtl Material__58
f 1//61 1//72 64//73 
f 64//73 54//60 1//61 
f 54//62 64//74 65//75 
f 65//75 55//62 54//62 
f 55//63 65//76 66//76 
f 66//76 56//63 55//63 
usemtl vetro2
f 56//63 66//76 67//76 
f 67//76 57//63 56//63 
f 57//64 67//77 68//77 
f 68//77 58//64 57//64 
f 58//65 68//78 69//78 
f 69//78 59//65 58//65 
f 59//66 69//79 70//79 
f 70//79 60//66 59//66 
f 60//67 70//80 71//80 
f 71//80 61//67 60//67 
f 61//68 71//81 72//81 
f 72//81 62//68 61//68 
f 62//69 72//82 73//82 
f 73//82 63//69 62//69 
f 63//70 73//83 22//84 
f 22//84 22//71 63//70 
usemtl Material__58
f 1//72 1//85 74//85 
f 74//85 64//73 1//72 
f 64//74 74//86 75//86 
f 75//86 65//75 64//74 
f 65//76 75//87 76//87 
f 76//87 66//76 65//76 
usemtl vetro2
f 66//76 76//87 77//87 
f 77//87 67//76 66//76 
f 67//77 77//88 78//88 
f 78//88 68//77 67//77 
f 68//78 78//89 79//89 
f 79//89 69//78 68//78 
f 69//79 79//87 80//87 
f 80//87 70//79 69//79 
f 70//80 80//90 81//90 
f 81//90 71//80 70//80 
f 71//81 81//91 82//91 
f 82//91 72//81 71//81 
f 72//82 82//92 83//92 
f 83//92 73//82 72//82 
f 73//83 83//93 22//94 
f 22//94 22//84 73//83 
usemtl Material__58
f 3//1 74//85 1//85 
f 1//85 1//1 3//1 
f 74//86 3//3 5//3 
f 5//3 75//86 74//86 
f 75//87 5//5 7//7 
f 7//7 76//87 75//87 
usemtl vetro2
f 76//87 7//8 9//8 
f 9//8 77//87 76//87 
f 77//88 9//9 11//11 
f 11//11 78//88 77//88 
f 78//89 11//12 13//12 
f 13//12 79//89 78//89 
f 79//87 13//7 15//7 
f 15//7 80//87 79//87 
f 80//90 15//14 17//14 
f 17//14 81//90 80//90 
f 81//91 17//16 19//16 
f 19//16 82//91 81//91 
f 82//92 19//18 21//18 
f 21//18 83//92 82//92 
f 83//93 21//20 23//23 
f 23//23 22//94 83//93 
# 176 faces

