# 3ds Max Wavefront OBJ Exporter v0.97b - (c)2007 guruware
# File Created: 08.04.2020 21:01:35

mtllib Resources\FloorTile.mtl

#
# object Box003
#

v  -7.0000 0.0000 7.0000
v  -7.0000 0.0000 -7.0000
v  7.0000 0.0000 -7.0000
v  7.0000 0.0000 7.0000
v  -7.0000 1.0000 7.0000
v  7.0000 1.0000 7.0000
v  7.0000 1.0000 -7.0000
v  -7.0000 1.0000 -7.0000
# 8 vertices

vn 0.0000 -1.0000 -0.0000
vn 0.0000 1.0000 -0.0000
vn 0.0000 0.0000 1.0000
vn 1.0000 0.0000 -0.0000
vn 0.0000 0.0000 -1.0000
vn -1.0000 0.0000 -0.0000
# 6 vertex normals

vt 1.0000 0.0000 0.0000
vt 1.0000 1.0000 0.0000
vt 0.0000 1.0000 0.0000
vt 0.0000 0.0000 0.0000
# 4 texture coords

o Box003
g Box003
usemtl 02___Default
s 2
f 1/1/1 2/2/1 3/3/1 
f 3/3/1 4/4/1 1/1/1 
s 4
f 5/4/2 6/1/2 7/2/2 
f 7/2/2 8/3/2 5/4/2 
s 8
f 1/4/3 4/1/3 6/2/3 
f 6/2/3 5/3/3 1/4/3 
s 16
f 4/4/4 3/1/4 7/2/4 
f 7/2/4 6/3/4 4/4/4 
s 32
f 3/4/5 2/1/5 8/2/5 
f 8/2/5 7/3/5 3/4/5 
s 64
f 2/4/6 1/1/6 5/2/6 
f 5/2/6 8/3/6 2/4/6 
# 12 faces

#
# object Box001
#

v  7.5000 0.0000 7.5000
v  -7.5000 1.0000 7.5000
v  -7.5000 0.0000 7.5000
v  7.5000 0.0000 -7.5000
v  7.5000 1.0000 7.5000
v  -7.5000 0.0000 -7.5000
v  7.5000 1.0000 -7.5000
v  -7.5000 1.0000 -7.5000
v  -7.0000 0.0000 7.0000
v  7.0000 0.0000 7.0000
v  7.0000 1.0000 7.0000
v  7.0000 1.0000 -7.0000
v  -7.0000 0.0000 -7.0000
v  -7.0000 1.0000 7.0000
v  7.0000 0.0000 -7.0000
v  -7.0000 1.0000 -7.0000
# 16 vertices

vn 0.0000 0.0000 1.0000
vn 1.0000 0.0000 -0.0000
vn 0.0000 0.0000 -1.0000
vn -1.0000 0.0000 -0.0000
vn 0.0000 -1.0000 -0.0000
vn 0.0000 1.0000 -0.0000
# 6 vertex normals

vt 1.0000 0.0000 0.0000
vt 0.0000 1.0000 0.0000
vt 0.0000 0.0000 0.0000
vt 0.9667 0.0333 0.0000
vt 0.0333 0.0333 0.0000
vt 1.0000 1.0000 0.0000
vt 0.9667 0.9667 0.0000
vt 0.0000 0.3540 0.0000
vt 1.0000 0.4540 0.0000
vt 1.0000 0.3540 0.0000
vt 0.0000 0.4540 0.0000
vt 0.0333 0.9667 0.0000
# 12 texture coords

o Box001
g Box001
usemtl 01___Default
s 8
f 9/5/7 10/6/7 11/7/7 
s 16
f 12/5/8 13/6/8 9/7/8 
s 32
f 14/5/9 15/6/9 12/7/9 
s 64
f 11/5/10 16/6/10 14/7/10 
s 2
f 9/7/11 17/8/11 18/9/11 
s 4
f 19/8/12 15/10/12 20/11/12 
s 1
f 21/12/8 22/13/8 17/14/8 
s 8
f 22/15/9 18/14/9 17/12/9 
s 1
f 18/12/10 20/13/10 23/14/10 
s 8
f 23/12/7 24/13/7 21/14/7 
f 10/6/7 9/5/7 13/10/7 
s 16
f 13/6/8 12/5/8 15/10/8 
s 32
f 15/6/9 14/5/9 16/10/9 
s 64
f 16/6/10 11/5/10 10/10/10 
s 2
f 14/10/11 17/8/11 11/5/11 
f 14/10/11 21/11/11 17/8/11 
f 12/6/11 21/11/11 14/10/11 
f 12/6/11 23/16/11 21/11/11 
f 9/7/11 23/16/11 12/6/11 
f 9/7/11 18/9/11 23/16/11 
f 17/8/11 9/7/11 11/5/11 
s 4
f 16/6/12 20/11/12 15/10/12 
f 16/6/12 24/16/12 20/11/12 
f 10/7/12 24/16/12 16/6/12 
f 10/7/12 22/9/12 24/16/12 
f 13/5/12 22/9/12 10/7/12 
f 13/5/12 19/8/12 22/9/12 
f 15/10/12 19/8/12 13/5/12 
s 1
f 22/13/8 21/12/8 24/15/8 
s 8
f 18/14/9 22/15/9 19/13/9 
s 1
f 20/13/10 18/12/10 19/15/10 
s 8
f 24/13/7 23/12/7 20/15/7 
# 32 faces

