# 3ds Max Wavefront OBJ Exporter v0.97b - (c)2007 guruware
# File Created: 09.04.2020 23:16:33

mtllib Resources\Pointer.mtl

#
# object Pointer
#

v  6.2593 0.0000 1.6885
v  6.2593 1.7349 -1.6885
v  6.2593 1.7349 1.6885
v  -1.8465 1.7349 -1.6885
v  -1.8465 0.0000 -1.6885
v  -1.8465 0.0000 1.6885
v  -1.8465 1.7349 1.6885
v  6.2593 0.0000 -1.6885
v  -1.8465 1.7349 -4.0616
v  -6.4305 0.0000 -0.0091
v  -1.8465 0.0000 -4.0616
v  -1.8465 0.0000 4.0433
v  -6.4305 1.7349 -0.0091
v  -1.8465 1.7349 4.0433
# 14 vertices

vn 1.0000 0.0000 0.0000
vn 0.0000 1.0000 -0.0000
vn 0.0000 -1.0000 -0.0000
vn -0.0000 0.0000 1.0000
vn 0.0000 0.0000 -1.0000
vn -0.6095 0.0000 -0.7928
vn -0.6095 0.0000 0.7928
# 7 vertex normals

vt 0.0000 0.0000 0.0000
vt 1.0000 1.0000 0.0000
vt 0.0000 1.0000 0.0000
vt 0.7666 0.0000 0.0000
vt 0.2334 0.0000 0.0000
vt 0.2334 1.0000 0.0000
vt 0.2383 0.0000 0.0000
vt 0.3370 1.0000 0.0000
vt 0.2383 1.0000 0.0000
vt 0.6685 0.0000 0.0000
vt 0.3370 0.0000 0.0000
vt 1.0000 0.0000 0.0000
vt 0.6685 1.0000 0.0000
vt 0.0979 1.0000 0.0000
vt 0.0979 0.0000 0.0000
vt 1.2001 0.4973 0.0000
vt 0.7666 -0.7027 0.0000
vt 0.7666 1.0000 0.0000
vt 0.7666 1.6973 0.0000
vt -0.2001 0.4973 0.0000
vt 0.2334 -0.7027 0.0000
vt 0.2334 1.6973 0.0000
# 22 texture coords

o Pointer
g Pointer
usemtl Pointer
s 64
f 1/1/1 2/2/1 3/3/1 
s 4
f 4/4/2 3/3/2 2/1/2 
s 2
f 5/5/3 1/2/3 6/6/3 
s 32
f 6/5/4 3/2/4 7/6/4 
s 8
f 5/4/5 2/3/5 8/1/5 
s 1
f 5/7/1 9/8/1 4/9/1 
s 16
f 10/10/6 9/8/6 11/11/6 
s 1
f 12/12/7 13/13/7 10/10/7 
s 8
f 7/14/1 12/1/1 6/15/1 
s 64
f 2/2/1 1/1/1 8/12/1 
s 4
f 13/16/2 4/4/2 9/17/2 
f 7/18/2 13/16/2 14/19/2 
f 7/18/2 4/4/2 13/16/2 
f 3/3/2 4/4/2 7/18/2 
s 2
f 5/5/3 10/20/3 11/21/3 
f 10/20/3 6/6/3 12/22/3 
f 5/5/3 6/6/3 10/20/3 
f 1/2/3 5/5/3 8/12/3 
s 32
f 3/2/4 6/5/4 1/12/4 
s 8
f 2/3/5 5/4/5 4/18/5 
s 1
f 9/8/1 5/7/1 11/11/1 
s 16
f 9/8/6 10/10/6 13/13/6 
s 1
f 13/13/7 12/12/7 14/2/7 
s 8
f 12/1/1 7/14/1 14/3/1 
# 24 faces

